<svg width="512" height="512" viewBox="0 0 100 100" xmlns="http://www.w3.org/2000/svg">
  <defs>
    <linearGradient id="g1" x1="0" y1="0" x2="1" y2="1">
      <stop offset="0%" stop-color="#D4BB7C"/>
      <stop offset="100%" stop-color="#C9A961"/>
    </linearGradient>
    <linearGradient id="g2" x1="1" y1="0" x2="0" y2="1">
      <stop offset="0%" stop-color="#C9A961"/>
      <stop offset="100%" stop-color="#A97142"/>
    </linearGradient>
    <linearGradient id="g3" x1="0" y1="1" x2="1" y2="0">
      <stop offset="0%" stop-color="#A97142"/>
      <stop offset="100%" stop-color="#D4BB7C"/>
    </linearGradient>
  </defs>
  <rect width="100" height="100" rx="20" fill="#0A0A0B"/>
  <g transform="translate(50 50)">
    <path d="M0 -4 C 14 -30, 34 -34, 44 -18 C 30 -14, 14 -8, 0 -4 Z" fill="url(#g1)"/>
    <path d="M0 -4 C 14 -30, 34 -34, 44 -18 C 30 -14, 14 -8, 0 -4 Z" fill="url(#g2)" transform="rotate(120)"/>
    <path d="M0 -4 C 14 -30, 34 -34, 44 -18 C 30 -14, 14 -8, 0 -4 Z" fill="url(#g3)" transform="rotate(240)"/>
    <circle r="7" fill="#C9A961"/>
  </g>
</svg>
